G04 #@! TF.GenerationSoftware,KiCad,Pcbnew,8.0.8*
G04 #@! TF.CreationDate,2025-01-16T18:06:06-03:00*
G04 #@! TF.ProjectId,Panel_TXn,50616e65-6c5f-4545-986e-2e6b69636164,rev?*
G04 #@! TF.SameCoordinates,Original*
G04 #@! TF.FileFunction,Legend,Top*
G04 #@! TF.FilePolarity,Positive*
%FSLAX46Y46*%
G04 Gerber Fmt 4.6, Leading zero omitted, Abs format (unit mm)*
G04 Created by KiCad (PCBNEW 8.0.8) date 2025-01-16 18:06:06*
%MOMM*%
%LPD*%
G01*
G04 APERTURE LIST*
%ADD10C,0.800000*%
%ADD11C,0.600000*%
%ADD12C,0.200000*%
%ADD13C,0.400000*%
%ADD14C,0.000000*%
G04 APERTURE END LIST*
D10*
X116330812Y-96073344D02*
G75*
G02*
X110050000Y-96170552I-3182468J2669114D01*
G01*
X116633760Y-98085248D02*
G75*
G02*
X109747052Y-98191835I-3489475J2926642D01*
G01*
D11*
X116330812Y-107907443D02*
G75*
G02*
X110050000Y-108004651I-3182468J2669114D01*
G01*
X116633760Y-109919347D02*
G75*
G02*
X109747052Y-110025934I-3489475J2926642D01*
G01*
D12*
X116633760Y-132500000D02*
G75*
G02*
X109747052Y-132606587I-3489475J2926642D01*
G01*
X116330812Y-130488096D02*
G75*
G02*
X110050000Y-130585304I-3182468J2669114D01*
G01*
D13*
X116633760Y-121718173D02*
G75*
G02*
X109747052Y-121824760I-3489475J2926642D01*
G01*
X116330812Y-119706269D02*
G75*
G02*
X110050000Y-119803477I-3182468J2669114D01*
G01*
D10*
X109597052Y-85373237D02*
G75*
G02*
X116483760Y-85266650I3489475J-2926641D01*
G01*
X109900000Y-87385141D02*
G75*
G02*
X116180812Y-87287933I3182468J-2669115D01*
G01*
D13*
X109597052Y-61634342D02*
G75*
G02*
X116483760Y-61527755I3489475J-2926642D01*
G01*
X109900000Y-63646246D02*
G75*
G02*
X116180812Y-63549038I3182468J-2669114D01*
G01*
D12*
X109597052Y-50906587D02*
G75*
G02*
X116483760Y-50800000I3489475J-2926642D01*
G01*
X109900000Y-52918491D02*
G75*
G02*
X116180812Y-52821283I3182468J-2669114D01*
G01*
D11*
X109597052Y-73556777D02*
G75*
G02*
X116483760Y-73450190I3489475J-2926642D01*
G01*
X109900000Y-75568681D02*
G75*
G02*
X116180812Y-75471473I3182468J-2669114D01*
G01*
D14*
G36*
X114740040Y-147575255D02*
G01*
X114775726Y-147575737D01*
X114809759Y-147577046D01*
X114826414Y-147578139D01*
X114842965Y-147579595D01*
X114859517Y-147581464D01*
X114876172Y-147583797D01*
X114893033Y-147586648D01*
X114910204Y-147590067D01*
X114927789Y-147594106D01*
X114945891Y-147598816D01*
X114964612Y-147604250D01*
X114984057Y-147610459D01*
X114990466Y-147613767D01*
X114996475Y-147617082D01*
X115002096Y-147620409D01*
X115007343Y-147623756D01*
X115012228Y-147627129D01*
X115016764Y-147630534D01*
X115020965Y-147633978D01*
X115024842Y-147637467D01*
X115028409Y-147641008D01*
X115031680Y-147644607D01*
X115034666Y-147648270D01*
X115037380Y-147652005D01*
X115039837Y-147655817D01*
X115042048Y-147659713D01*
X115044027Y-147663699D01*
X115045785Y-147667783D01*
X115047338Y-147671969D01*
X115048696Y-147676266D01*
X115049874Y-147680678D01*
X115050884Y-147685213D01*
X115051738Y-147689878D01*
X115052451Y-147694678D01*
X115053501Y-147704710D01*
X115054139Y-147715362D01*
X115054466Y-147726686D01*
X115054604Y-147751553D01*
X115054400Y-147754859D01*
X115053803Y-147758159D01*
X115052831Y-147761445D01*
X115051504Y-147764712D01*
X115049840Y-147767953D01*
X115047861Y-147771162D01*
X115045584Y-147774333D01*
X115043030Y-147777458D01*
X115040217Y-147780531D01*
X115037165Y-147783546D01*
X115033894Y-147786497D01*
X115030422Y-147789376D01*
X115026770Y-147792178D01*
X115022956Y-147794896D01*
X115019000Y-147797524D01*
X115014921Y-147800055D01*
X115006474Y-147804800D01*
X114997767Y-147809080D01*
X114988958Y-147812843D01*
X114980200Y-147816038D01*
X114971648Y-147818613D01*
X114967499Y-147819652D01*
X114963459Y-147820516D01*
X114959548Y-147821200D01*
X114955786Y-147821696D01*
X114952192Y-147821998D01*
X114948785Y-147822101D01*
X114935558Y-147815892D01*
X114922330Y-147810458D01*
X114909103Y-147805747D01*
X114895875Y-147801708D01*
X114882648Y-147798289D01*
X114869421Y-147795439D01*
X114856193Y-147793105D01*
X114842966Y-147791236D01*
X114829739Y-147789781D01*
X114816511Y-147788687D01*
X114790057Y-147787378D01*
X114763602Y-147786896D01*
X114737147Y-147786827D01*
X114711106Y-147787442D01*
X114685891Y-147789264D01*
X114661503Y-147792262D01*
X114637942Y-147796403D01*
X114615208Y-147801655D01*
X114593300Y-147807986D01*
X114572219Y-147815363D01*
X114551964Y-147823754D01*
X114532536Y-147833127D01*
X114513935Y-147843449D01*
X114496161Y-147854688D01*
X114479213Y-147866812D01*
X114463093Y-147879789D01*
X114447798Y-147893586D01*
X114433331Y-147908170D01*
X114419690Y-147923511D01*
X114406876Y-147939575D01*
X114394889Y-147956330D01*
X114383728Y-147973743D01*
X114373394Y-147991783D01*
X114363887Y-148010418D01*
X114355207Y-148029614D01*
X114347353Y-148049339D01*
X114340326Y-148069562D01*
X114334125Y-148090250D01*
X114328752Y-148111371D01*
X114324205Y-148132892D01*
X114320485Y-148154781D01*
X114317591Y-148177006D01*
X114315524Y-148199535D01*
X114313871Y-148245373D01*
X114314384Y-148271515D01*
X114315912Y-148297024D01*
X114318434Y-148321888D01*
X114321931Y-148346092D01*
X114326385Y-148369625D01*
X114331774Y-148392474D01*
X114338081Y-148414625D01*
X114345286Y-148436065D01*
X114353369Y-148456782D01*
X114362311Y-148476763D01*
X114372093Y-148495995D01*
X114382695Y-148514464D01*
X114394097Y-148532159D01*
X114406282Y-148549065D01*
X114419228Y-148565171D01*
X114432917Y-148580463D01*
X114447330Y-148594928D01*
X114462446Y-148608554D01*
X114478248Y-148621327D01*
X114494714Y-148633235D01*
X114511826Y-148644264D01*
X114529565Y-148654402D01*
X114547911Y-148663636D01*
X114566845Y-148671953D01*
X114586347Y-148679339D01*
X114606398Y-148685783D01*
X114626978Y-148691271D01*
X114648069Y-148695790D01*
X114669651Y-148699327D01*
X114691704Y-148701870D01*
X114714209Y-148703405D01*
X114737147Y-148703919D01*
X114948785Y-148668646D01*
X114955786Y-148669051D01*
X114963459Y-148670230D01*
X114971649Y-148672134D01*
X114980200Y-148674708D01*
X114988958Y-148677903D01*
X114997768Y-148681667D01*
X115006474Y-148685947D01*
X115014922Y-148690692D01*
X115022956Y-148695850D01*
X115030423Y-148701370D01*
X115037165Y-148707200D01*
X115040217Y-148710216D01*
X115043030Y-148713289D01*
X115045584Y-148716414D01*
X115047861Y-148719584D01*
X115049841Y-148722793D01*
X115051504Y-148726034D01*
X115052831Y-148729301D01*
X115053803Y-148732588D01*
X115054400Y-148735887D01*
X115054604Y-148739193D01*
X115054199Y-148752402D01*
X115053019Y-148765507D01*
X115051116Y-148778407D01*
X115048541Y-148790997D01*
X115045346Y-148803173D01*
X115041583Y-148814834D01*
X115037303Y-148825874D01*
X115032558Y-148836191D01*
X115027400Y-148845682D01*
X115021880Y-148854243D01*
X115016050Y-148861770D01*
X115009961Y-148868160D01*
X115003666Y-148873311D01*
X115000457Y-148875389D01*
X114997216Y-148877118D01*
X114993949Y-148878485D01*
X114990662Y-148879478D01*
X114987363Y-148880083D01*
X114984057Y-148880287D01*
X114964612Y-148886496D01*
X114945891Y-148891930D01*
X114927789Y-148896641D01*
X114910204Y-148900680D01*
X114893033Y-148904099D01*
X114876172Y-148906949D01*
X114859517Y-148909283D01*
X114842965Y-148911152D01*
X114826414Y-148912607D01*
X114809759Y-148913701D01*
X114775726Y-148915010D01*
X114740040Y-148915492D01*
X114701873Y-148915561D01*
X114665915Y-148914739D01*
X114630802Y-148912297D01*
X114596555Y-148908266D01*
X114563193Y-148902678D01*
X114530735Y-148895566D01*
X114499200Y-148886962D01*
X114468609Y-148876899D01*
X114438979Y-148865408D01*
X114410332Y-148852522D01*
X114382686Y-148838273D01*
X114356060Y-148822694D01*
X114330474Y-148805816D01*
X114305947Y-148787673D01*
X114282499Y-148768296D01*
X114260148Y-148747718D01*
X114238915Y-148725970D01*
X114218819Y-148703086D01*
X114199879Y-148679098D01*
X114182115Y-148654037D01*
X114165545Y-148627937D01*
X114150189Y-148600828D01*
X114136067Y-148572745D01*
X114123198Y-148543719D01*
X114111602Y-148513781D01*
X114101297Y-148482966D01*
X114092303Y-148451304D01*
X114084640Y-148418828D01*
X114078327Y-148385571D01*
X114073382Y-148351565D01*
X114069827Y-148316842D01*
X114067679Y-148281434D01*
X114066959Y-148245373D01*
X114067679Y-148209313D01*
X114069827Y-148173905D01*
X114073382Y-148139181D01*
X114078327Y-148105175D01*
X114084640Y-148071918D01*
X114092303Y-148039442D01*
X114101297Y-148007781D01*
X114111602Y-147976965D01*
X114123198Y-147947028D01*
X114136067Y-147918001D01*
X114150189Y-147889918D01*
X114165545Y-147862810D01*
X114182115Y-147836709D01*
X114199879Y-147811649D01*
X114218819Y-147787660D01*
X114238915Y-147764776D01*
X114260148Y-147743029D01*
X114282499Y-147722450D01*
X114305947Y-147703073D01*
X114330474Y-147684930D01*
X114356060Y-147668053D01*
X114382686Y-147652473D01*
X114410332Y-147638225D01*
X114438979Y-147625339D01*
X114468609Y-147613848D01*
X114499200Y-147603784D01*
X114530735Y-147595180D01*
X114563193Y-147588068D01*
X114596555Y-147582481D01*
X114630802Y-147578449D01*
X114665915Y-147576007D01*
X114701873Y-147575186D01*
X114740040Y-147575255D01*
G37*
G36*
X115114587Y-134950000D02*
G01*
X115114587Y-134950000D01*
G75*
G02*
X117114587Y-136950000I13J-2000000D01*
G01*
X117114587Y-140950000D01*
G75*
G02*
X115114587Y-142950000I-1999987J0D01*
G01*
X111114587Y-142950000D01*
G75*
G02*
X109114587Y-140950000I13J2000000D01*
G01*
X109114587Y-136950000D01*
G75*
G02*
X111114587Y-134950000I2000013J0D01*
G01*
X115114587Y-134950000D01*
G37*
G36*
X112469536Y-143509229D02*
G01*
X112470895Y-143508777D01*
X112473717Y-143510061D01*
X112490383Y-143513377D01*
X112498222Y-143521216D01*
X112585612Y-143560996D01*
X112585620Y-143560996D01*
X112585627Y-143561003D01*
X112589654Y-143562836D01*
X112608919Y-143577788D01*
X112611420Y-143585293D01*
X112701135Y-143669782D01*
X112704895Y-143675410D01*
X112707158Y-143676768D01*
X112708094Y-143680198D01*
X112714683Y-143690059D01*
X112714683Y-143704324D01*
X112765194Y-143889293D01*
X112766379Y-143913651D01*
X112762822Y-143919579D01*
X112767060Y-144237785D01*
X112762302Y-144261703D01*
X112757842Y-144266162D01*
X112717575Y-144443419D01*
X112714684Y-144449538D01*
X112714684Y-144452178D01*
X112712181Y-144454834D01*
X112707158Y-144465469D01*
X112695683Y-144472353D01*
X112605897Y-144567694D01*
X112585620Y-144581242D01*
X112578190Y-144581242D01*
X112494416Y-144627021D01*
X112491396Y-144627847D01*
X112490383Y-144628861D01*
X112487458Y-144628925D01*
X112470895Y-144633461D01*
X112459172Y-144629553D01*
X112275989Y-144633619D01*
X112272917Y-144633008D01*
X112271559Y-144633461D01*
X112268736Y-144632176D01*
X112252071Y-144628861D01*
X112244231Y-144621021D01*
X112156844Y-144581243D01*
X112156834Y-144581243D01*
X112156824Y-144581233D01*
X112152800Y-144579402D01*
X112133535Y-144564450D01*
X112131033Y-144556944D01*
X112041319Y-144472455D01*
X112037558Y-144466826D01*
X112035296Y-144465469D01*
X112034359Y-144462038D01*
X112027771Y-144452178D01*
X112027771Y-144437912D01*
X111977260Y-144252943D01*
X111976075Y-144228586D01*
X111979631Y-144222657D01*
X111975661Y-143924492D01*
X112096221Y-143924492D01*
X112100394Y-144237785D01*
X112099499Y-144242281D01*
X112143204Y-144402325D01*
X112224849Y-144479215D01*
X112297674Y-144512364D01*
X112458355Y-144508798D01*
X112533752Y-144467598D01*
X112534197Y-144467476D01*
X112605504Y-144391757D01*
X112643926Y-144222627D01*
X112646232Y-144217744D01*
X112642060Y-143904452D01*
X112642954Y-143899955D01*
X112599250Y-143739911D01*
X112517606Y-143663023D01*
X112444779Y-143629873D01*
X112284098Y-143633439D01*
X112208702Y-143674640D01*
X112208256Y-143674762D01*
X112136949Y-143750479D01*
X112098528Y-143919610D01*
X112096221Y-143924492D01*
X111975661Y-143924492D01*
X111975394Y-143904452D01*
X111980152Y-143880534D01*
X111984611Y-143876074D01*
X112024879Y-143698818D01*
X112027771Y-143692696D01*
X112027771Y-143690059D01*
X112030271Y-143687404D01*
X112035296Y-143676768D01*
X112046772Y-143669881D01*
X112136557Y-143574544D01*
X112156834Y-143560996D01*
X112164264Y-143560996D01*
X112248038Y-143515217D01*
X112251057Y-143514390D01*
X112252071Y-143513377D01*
X112254995Y-143513312D01*
X112271559Y-143508777D01*
X112283281Y-143512684D01*
X112466465Y-143508619D01*
X112469536Y-143509229D01*
G37*
G36*
X115114587Y-40331049D02*
G01*
X115114587Y-40331049D01*
G75*
G02*
X117114587Y-42331049I13J-2000051D01*
G01*
X117114587Y-46331049D01*
G75*
G02*
X115114587Y-48331049I-1999987J-51D01*
G01*
X111114587Y-48331049D01*
G75*
G02*
X109114587Y-46331049I13J1999949D01*
G01*
X109114587Y-42331049D01*
G75*
G02*
X111114587Y-40331049I1999913J49D01*
G01*
X115114587Y-40331049D01*
G37*
G36*
X111392720Y-147116733D02*
G01*
X111399024Y-147117043D01*
X111405121Y-147117559D01*
X111411011Y-147118283D01*
X111416695Y-147119213D01*
X111422172Y-147120350D01*
X111427442Y-147121693D01*
X111432506Y-147123243D01*
X111437363Y-147125000D01*
X111442013Y-147126963D01*
X111446456Y-147129134D01*
X111450693Y-147131510D01*
X111454723Y-147134094D01*
X111458547Y-147136884D01*
X111462164Y-147139881D01*
X111465574Y-147143085D01*
X111468778Y-147146495D01*
X111471774Y-147150112D01*
X111474565Y-147153935D01*
X111477148Y-147157966D01*
X111479525Y-147162203D01*
X111481695Y-147166646D01*
X111483658Y-147171297D01*
X111485415Y-147176154D01*
X111486965Y-147181217D01*
X111488309Y-147186488D01*
X111489445Y-147191965D01*
X111490376Y-147197648D01*
X111491099Y-147203539D01*
X111491616Y-147209636D01*
X111491926Y-147215940D01*
X111492029Y-147222450D01*
X111492029Y-147680996D01*
X111506049Y-147674389D01*
X111521515Y-147667834D01*
X111538222Y-147661383D01*
X111555961Y-147655086D01*
X111574528Y-147648997D01*
X111593715Y-147643166D01*
X111633121Y-147632486D01*
X111672528Y-147623460D01*
X111691714Y-147619697D01*
X111710281Y-147616502D01*
X111728021Y-147613927D01*
X111744727Y-147612023D01*
X111760193Y-147610844D01*
X111774213Y-147610439D01*
X111806967Y-147611260D01*
X111839075Y-147613703D01*
X111870512Y-147617734D01*
X111901251Y-147623322D01*
X111931267Y-147630434D01*
X111960533Y-147639037D01*
X111989024Y-147649101D01*
X112016715Y-147660592D01*
X112043579Y-147673478D01*
X112069590Y-147687727D01*
X112094723Y-147703306D01*
X112118952Y-147720183D01*
X112142250Y-147738327D01*
X112164593Y-147757704D01*
X112185954Y-147778282D01*
X112206307Y-147800029D01*
X112225627Y-147822913D01*
X112243888Y-147846902D01*
X112261064Y-147871962D01*
X112277129Y-147898063D01*
X112292057Y-147925171D01*
X112305823Y-147953255D01*
X112318400Y-147982281D01*
X112329763Y-148012218D01*
X112339886Y-148043034D01*
X112348743Y-148074696D01*
X112356308Y-148107171D01*
X112362556Y-148140428D01*
X112367460Y-148174435D01*
X112370995Y-148209158D01*
X112373135Y-148244566D01*
X112373854Y-148280626D01*
X112373135Y-148316688D01*
X112370995Y-148352097D01*
X112367460Y-148386821D01*
X112362556Y-148420828D01*
X112356308Y-148454086D01*
X112348743Y-148486562D01*
X112339886Y-148518224D01*
X112329763Y-148549040D01*
X112318400Y-148578978D01*
X112305823Y-148608005D01*
X112292057Y-148636089D01*
X112277129Y-148663197D01*
X112261064Y-148689298D01*
X112243888Y-148714359D01*
X112225627Y-148738348D01*
X112206307Y-148761233D01*
X112185954Y-148782980D01*
X112164593Y-148803559D01*
X112142250Y-148822936D01*
X112118952Y-148841079D01*
X112094723Y-148857957D01*
X112069590Y-148873536D01*
X112043579Y-148887785D01*
X112016715Y-148900671D01*
X111989024Y-148912162D01*
X111960533Y-148922225D01*
X111931267Y-148930829D01*
X111901251Y-148937941D01*
X111870512Y-148943529D01*
X111839075Y-148947560D01*
X111806967Y-148950003D01*
X111774213Y-148950824D01*
X111754372Y-148950419D01*
X111734531Y-148949240D01*
X111714690Y-148947336D01*
X111694849Y-148944761D01*
X111675008Y-148941566D01*
X111655167Y-148937803D01*
X111635325Y-148933522D01*
X111615484Y-148928777D01*
X111575802Y-148918097D01*
X111536120Y-148906177D01*
X111456756Y-148880267D01*
X111456653Y-148883472D01*
X111456351Y-148886478D01*
X111455855Y-148889289D01*
X111455171Y-148891913D01*
X111454307Y-148894356D01*
X111453268Y-148896625D01*
X111452061Y-148898726D01*
X111450693Y-148900665D01*
X111449170Y-148902449D01*
X111447498Y-148904085D01*
X111445684Y-148905579D01*
X111443735Y-148906936D01*
X111441656Y-148908165D01*
X111439455Y-148909271D01*
X111437138Y-148910260D01*
X111434710Y-148911140D01*
X111432179Y-148911916D01*
X111429552Y-148912596D01*
X111426834Y-148913185D01*
X111424032Y-148913690D01*
X111421152Y-148914117D01*
X111418202Y-148914474D01*
X111412113Y-148914999D01*
X111405818Y-148915318D01*
X111399368Y-148915482D01*
X111386210Y-148915551D01*
X111379700Y-148915447D01*
X111373396Y-148915137D01*
X111367299Y-148914620D01*
X111361409Y-148913897D01*
X111355725Y-148912966D01*
X111350248Y-148911829D01*
X111344978Y-148910486D01*
X111339914Y-148908935D01*
X111335057Y-148907178D01*
X111330407Y-148905214D01*
X111325963Y-148903044D01*
X111321726Y-148900667D01*
X111317696Y-148898083D01*
X111313873Y-148895293D01*
X111310256Y-148892295D01*
X111306846Y-148889092D01*
X111303642Y-148885681D01*
X111300645Y-148882064D01*
X111297855Y-148878240D01*
X111295272Y-148874210D01*
X111292895Y-148869973D01*
X111290725Y-148865529D01*
X111288761Y-148860879D01*
X111287004Y-148856022D01*
X111285454Y-148850959D01*
X111284111Y-148845689D01*
X111282974Y-148840212D01*
X111282044Y-148834529D01*
X111281321Y-148828639D01*
X111280804Y-148822542D01*
X111280494Y-148816239D01*
X111280391Y-148809730D01*
X111280391Y-148668656D01*
X111492029Y-148668656D01*
X111506049Y-148675261D01*
X111521515Y-148681815D01*
X111538222Y-148688265D01*
X111555961Y-148694560D01*
X111574528Y-148700648D01*
X111593715Y-148706479D01*
X111633121Y-148717157D01*
X111672528Y-148726182D01*
X111691714Y-148729945D01*
X111710281Y-148733140D01*
X111728021Y-148735715D01*
X111744727Y-148737619D01*
X111760193Y-148738798D01*
X111774213Y-148739203D01*
X111797151Y-148738689D01*
X111819656Y-148737153D01*
X111841709Y-148734611D01*
X111863291Y-148731074D01*
X111884382Y-148726555D01*
X111904963Y-148721067D01*
X111925014Y-148714623D01*
X111944516Y-148707237D01*
X111963449Y-148698920D01*
X111981795Y-148689686D01*
X111999534Y-148679548D01*
X112016646Y-148668519D01*
X112033113Y-148656611D01*
X112048914Y-148643838D01*
X112064030Y-148630212D01*
X112078443Y-148615747D01*
X112092132Y-148600455D01*
X112105078Y-148584349D01*
X112117263Y-148567442D01*
X112128666Y-148549748D01*
X112139268Y-148531278D01*
X112149049Y-148512047D01*
X112157991Y-148492066D01*
X112166074Y-148471349D01*
X112173279Y-148449908D01*
X112179586Y-148427757D01*
X112184976Y-148404909D01*
X112189429Y-148381376D01*
X112192926Y-148357172D01*
X112195448Y-148332308D01*
X112196976Y-148306799D01*
X112197489Y-148280657D01*
X112196976Y-148254513D01*
X112195448Y-148229002D01*
X112192926Y-148204137D01*
X112189429Y-148179931D01*
X112184976Y-148156397D01*
X112179586Y-148133547D01*
X112173279Y-148111395D01*
X112166074Y-148089953D01*
X112157991Y-148069235D01*
X112149049Y-148049253D01*
X112139268Y-148030021D01*
X112128666Y-148011551D01*
X112117263Y-147993855D01*
X112105078Y-147976948D01*
X112092132Y-147960842D01*
X112078443Y-147945549D01*
X112064030Y-147931083D01*
X112048914Y-147917457D01*
X112033113Y-147904684D01*
X112016646Y-147892776D01*
X111999534Y-147881746D01*
X111981795Y-147871608D01*
X111963449Y-147862374D01*
X111944516Y-147854057D01*
X111925014Y-147846671D01*
X111904963Y-147840227D01*
X111884382Y-147834739D01*
X111863291Y-147830220D01*
X111841709Y-147826683D01*
X111819656Y-147824140D01*
X111797151Y-147822605D01*
X111774213Y-147822090D01*
X111760193Y-147822495D01*
X111744727Y-147823675D01*
X111728020Y-147825578D01*
X111710280Y-147828153D01*
X111691714Y-147831348D01*
X111672527Y-147835111D01*
X111633121Y-147844136D01*
X111593714Y-147854815D01*
X111574528Y-147860645D01*
X111555961Y-147866734D01*
X111538221Y-147873029D01*
X111521515Y-147879479D01*
X111506049Y-147886032D01*
X111492029Y-147892638D01*
X111492029Y-148668656D01*
X111280391Y-148668656D01*
X111280391Y-147892638D01*
X111280391Y-147222450D01*
X111280494Y-147215939D01*
X111280804Y-147209634D01*
X111281321Y-147203536D01*
X111282044Y-147197645D01*
X111282974Y-147191961D01*
X111284111Y-147186484D01*
X111285454Y-147181213D01*
X111287004Y-147176149D01*
X111288761Y-147171292D01*
X111290725Y-147166642D01*
X111292895Y-147162198D01*
X111295272Y-147157961D01*
X111297855Y-147153931D01*
X111300645Y-147150107D01*
X111303642Y-147146491D01*
X111306846Y-147143081D01*
X111310256Y-147139877D01*
X111313873Y-147136881D01*
X111317696Y-147134091D01*
X111321726Y-147131508D01*
X111325963Y-147129131D01*
X111330407Y-147126961D01*
X111335057Y-147124998D01*
X111339914Y-147123242D01*
X111344978Y-147121692D01*
X111350248Y-147120349D01*
X111355725Y-147119212D01*
X111361409Y-147118282D01*
X111367299Y-147117559D01*
X111373396Y-147117043D01*
X111379700Y-147116733D01*
X111386210Y-147116629D01*
X111392720Y-147116733D01*
G37*
G36*
X114095636Y-143547201D02*
G01*
X114097239Y-143844052D01*
X114275989Y-143841952D01*
X114299907Y-143846710D01*
X114333731Y-143880534D01*
X114333731Y-143928370D01*
X114299907Y-143962194D01*
X114097889Y-143964568D01*
X114100351Y-144420403D01*
X114133442Y-144480958D01*
X114200802Y-144511621D01*
X114275989Y-144508619D01*
X114299907Y-144513377D01*
X114333731Y-144547201D01*
X114333731Y-144595037D01*
X114299907Y-144628861D01*
X114180751Y-144633619D01*
X114177679Y-144633008D01*
X114176321Y-144633461D01*
X114173498Y-144632176D01*
X114156833Y-144628861D01*
X114148993Y-144621021D01*
X114057562Y-144579402D01*
X114047731Y-144571771D01*
X114044563Y-144570716D01*
X114043231Y-144568280D01*
X114038297Y-144564450D01*
X114033852Y-144551115D01*
X113981992Y-144456212D01*
X113981165Y-144453192D01*
X113980152Y-144452179D01*
X113980137Y-144449437D01*
X113975552Y-144432691D01*
X113979975Y-144419421D01*
X113977526Y-143965982D01*
X113895037Y-143966952D01*
X113871119Y-143962194D01*
X113837295Y-143928370D01*
X113837295Y-143880534D01*
X113871119Y-143846710D01*
X113976875Y-143845467D01*
X113975394Y-143571119D01*
X113980152Y-143547201D01*
X114013976Y-143513377D01*
X114061812Y-143513377D01*
X114095636Y-143547201D01*
G37*
G36*
X113190874Y-39180534D02*
G01*
X113195563Y-39720355D01*
X113228680Y-39780958D01*
X113297077Y-39812093D01*
X113410637Y-39808853D01*
X113484207Y-39768649D01*
X113502946Y-39747849D01*
X113499203Y-39204452D01*
X113503961Y-39180534D01*
X113537785Y-39146710D01*
X113585621Y-39146710D01*
X113619445Y-39180534D01*
X113624203Y-39871119D01*
X113619445Y-39895037D01*
X113585621Y-39928861D01*
X113537785Y-39928861D01*
X113504443Y-39895519D01*
X113446797Y-39927021D01*
X113443777Y-39927847D01*
X113442764Y-39928861D01*
X113439764Y-39928946D01*
X113423276Y-39933461D01*
X113412099Y-39929735D01*
X113275989Y-39933619D01*
X113272917Y-39933008D01*
X113271559Y-39933461D01*
X113268736Y-39932176D01*
X113252071Y-39928861D01*
X113244231Y-39921021D01*
X113152800Y-39879402D01*
X113142969Y-39871771D01*
X113139801Y-39870716D01*
X113138469Y-39868280D01*
X113133535Y-39864450D01*
X113129090Y-39851115D01*
X113077230Y-39756212D01*
X113076403Y-39753192D01*
X113075390Y-39752179D01*
X113075365Y-39749403D01*
X113070790Y-39732691D01*
X113075108Y-39719735D01*
X113070632Y-39204452D01*
X113075390Y-39180534D01*
X113109214Y-39146710D01*
X113157050Y-39146710D01*
X113190874Y-39180534D01*
G37*
G36*
X113190874Y-143880534D02*
G01*
X113195563Y-144420355D01*
X113228680Y-144480958D01*
X113297077Y-144512093D01*
X113410637Y-144508853D01*
X113484207Y-144468649D01*
X113502946Y-144447849D01*
X113499203Y-143904452D01*
X113503961Y-143880534D01*
X113537785Y-143846710D01*
X113585621Y-143846710D01*
X113619445Y-143880534D01*
X113624203Y-144571119D01*
X113619445Y-144595037D01*
X113585621Y-144628861D01*
X113537785Y-144628861D01*
X113504443Y-144595519D01*
X113446797Y-144627021D01*
X113443777Y-144627847D01*
X113442764Y-144628861D01*
X113439764Y-144628946D01*
X113423276Y-144633461D01*
X113412099Y-144629735D01*
X113275989Y-144633619D01*
X113272917Y-144633008D01*
X113271559Y-144633461D01*
X113268736Y-144632176D01*
X113252071Y-144628861D01*
X113244231Y-144621021D01*
X113152800Y-144579402D01*
X113142969Y-144571771D01*
X113139801Y-144570716D01*
X113138469Y-144568280D01*
X113133535Y-144564450D01*
X113129090Y-144551115D01*
X113077230Y-144456212D01*
X113076403Y-144453192D01*
X113075390Y-144452179D01*
X113075365Y-144449403D01*
X113070790Y-144432691D01*
X113075108Y-144419735D01*
X113070632Y-143904452D01*
X113075390Y-143880534D01*
X113109214Y-143846710D01*
X113157050Y-143846710D01*
X113190874Y-143880534D01*
G37*
G36*
X113217888Y-147575997D02*
G01*
X113249997Y-147578439D01*
X113281433Y-147582470D01*
X113312172Y-147588058D01*
X113342188Y-147595170D01*
X113371454Y-147603774D01*
X113399946Y-147613838D01*
X113427636Y-147625329D01*
X113454500Y-147638214D01*
X113480511Y-147652463D01*
X113505644Y-147668042D01*
X113529873Y-147684920D01*
X113553172Y-147703063D01*
X113575514Y-147722440D01*
X113596875Y-147743018D01*
X113617229Y-147764766D01*
X113636549Y-147787650D01*
X113654810Y-147811638D01*
X113671985Y-147836699D01*
X113688050Y-147862800D01*
X113702978Y-147889908D01*
X113716744Y-147917991D01*
X113729321Y-147947018D01*
X113740684Y-147976955D01*
X113750807Y-148007770D01*
X113759664Y-148039432D01*
X113767229Y-148071908D01*
X113773477Y-148105165D01*
X113778381Y-148139171D01*
X113781916Y-148173895D01*
X113784056Y-148209303D01*
X113784775Y-148245363D01*
X113784056Y-148284628D01*
X113781916Y-148323041D01*
X113778381Y-148360575D01*
X113773477Y-148397204D01*
X113767229Y-148432904D01*
X113759664Y-148467648D01*
X113750807Y-148501409D01*
X113740684Y-148534164D01*
X113729321Y-148565885D01*
X113716744Y-148596546D01*
X113702978Y-148626123D01*
X113688050Y-148654588D01*
X113671985Y-148681917D01*
X113654809Y-148708083D01*
X113636548Y-148733061D01*
X113617228Y-148756825D01*
X113596875Y-148779348D01*
X113575514Y-148800606D01*
X113553171Y-148820571D01*
X113529872Y-148839220D01*
X113505643Y-148856524D01*
X113480511Y-148872460D01*
X113454499Y-148887000D01*
X113427635Y-148900120D01*
X113399945Y-148911793D01*
X113371454Y-148921993D01*
X113342187Y-148930695D01*
X113312171Y-148937873D01*
X113281432Y-148943500D01*
X113249996Y-148947552D01*
X113217888Y-148950002D01*
X113185134Y-148950824D01*
X113165301Y-148950419D01*
X113145520Y-148949240D01*
X113125843Y-148947336D01*
X113106321Y-148944761D01*
X113087005Y-148941566D01*
X113067947Y-148937803D01*
X113049200Y-148933522D01*
X113030814Y-148928777D01*
X113012842Y-148923618D01*
X112995335Y-148918097D01*
X112978344Y-148912266D01*
X112961922Y-148906177D01*
X112930989Y-148893429D01*
X112902950Y-148880267D01*
X112902950Y-149303550D01*
X112902846Y-149310061D01*
X112902536Y-149316365D01*
X112902020Y-149322463D01*
X112901296Y-149328354D01*
X112900366Y-149334038D01*
X112899230Y-149339516D01*
X112897886Y-149344786D01*
X112896336Y-149349850D01*
X112894579Y-149354708D01*
X112892616Y-149359358D01*
X112890446Y-149363802D01*
X112888069Y-149368038D01*
X112885485Y-149372069D01*
X112882695Y-149375892D01*
X112879699Y-149379509D01*
X112876495Y-149382919D01*
X112873085Y-149386122D01*
X112869468Y-149389119D01*
X112865644Y-149391909D01*
X112861614Y-149394492D01*
X112857377Y-149396868D01*
X112852934Y-149399038D01*
X112848284Y-149401001D01*
X112843427Y-149402758D01*
X112838363Y-149404308D01*
X112833093Y-149405651D01*
X112827616Y-149406787D01*
X112821932Y-149407717D01*
X112816042Y-149408440D01*
X112809945Y-149408957D01*
X112803641Y-149409267D01*
X112797131Y-149409370D01*
X112790621Y-149409267D01*
X112784317Y-149408957D01*
X112778220Y-149408440D01*
X112772330Y-149407717D01*
X112766646Y-149406787D01*
X112761169Y-149405650D01*
X112755899Y-149404307D01*
X112750835Y-149402756D01*
X112745978Y-149401000D01*
X112741328Y-149399036D01*
X112736884Y-149396866D01*
X112732647Y-149394489D01*
X112728617Y-149391906D01*
X112724794Y-149389115D01*
X112721177Y-149386119D01*
X112717767Y-149382915D01*
X112714563Y-149379505D01*
X112711566Y-149375888D01*
X112708776Y-149372064D01*
X112706193Y-149368034D01*
X112703816Y-149363797D01*
X112701646Y-149359353D01*
X112699683Y-149354703D01*
X112697926Y-149349846D01*
X112696376Y-149344782D01*
X112695032Y-149339512D01*
X112693896Y-149334035D01*
X112692966Y-149328351D01*
X112692242Y-149322461D01*
X112691726Y-149316364D01*
X112691416Y-149310060D01*
X112691312Y-149303550D01*
X112691312Y-148668656D01*
X112902950Y-148668656D01*
X112916969Y-148675261D01*
X112932436Y-148681815D01*
X112949142Y-148688265D01*
X112966882Y-148694560D01*
X112985449Y-148700648D01*
X113004635Y-148706479D01*
X113044042Y-148717157D01*
X113083448Y-148726182D01*
X113102635Y-148729945D01*
X113121202Y-148733140D01*
X113138941Y-148735715D01*
X113155648Y-148737619D01*
X113171114Y-148738798D01*
X113185134Y-148739203D01*
X113208072Y-148738689D01*
X113230577Y-148737153D01*
X113252630Y-148734611D01*
X113274212Y-148731074D01*
X113295303Y-148726555D01*
X113315883Y-148721067D01*
X113335934Y-148714623D01*
X113355436Y-148707237D01*
X113374370Y-148698920D01*
X113392716Y-148689686D01*
X113410454Y-148679548D01*
X113427567Y-148668519D01*
X113444033Y-148656611D01*
X113459834Y-148643838D01*
X113474951Y-148630212D01*
X113489363Y-148615747D01*
X113503053Y-148600455D01*
X113515999Y-148584349D01*
X113528183Y-148567442D01*
X113539586Y-148549748D01*
X113550188Y-148531278D01*
X113559970Y-148512047D01*
X113568912Y-148492066D01*
X113576995Y-148471349D01*
X113584200Y-148449908D01*
X113590506Y-148427757D01*
X113595896Y-148404909D01*
X113600350Y-148381376D01*
X113603847Y-148357172D01*
X113606369Y-148332308D01*
X113607896Y-148306799D01*
X113608410Y-148280657D01*
X113600556Y-148229002D01*
X113590222Y-148179931D01*
X113577408Y-148133547D01*
X113562114Y-148089953D01*
X113544340Y-148049253D01*
X113524085Y-148011551D01*
X113513028Y-147993855D01*
X113501351Y-147976948D01*
X113489053Y-147960842D01*
X113476136Y-147945549D01*
X113462599Y-147931083D01*
X113448441Y-147917457D01*
X113433664Y-147904684D01*
X113418266Y-147892776D01*
X113402249Y-147881746D01*
X113385611Y-147871608D01*
X113368354Y-147862374D01*
X113350476Y-147854057D01*
X113331978Y-147846671D01*
X113312860Y-147840227D01*
X113293123Y-147834739D01*
X113272765Y-147830220D01*
X113251787Y-147826683D01*
X113230189Y-147824140D01*
X113207971Y-147822605D01*
X113185134Y-147822090D01*
X113171114Y-147822495D01*
X113155647Y-147823675D01*
X113138941Y-147825578D01*
X113121201Y-147828153D01*
X113102635Y-147831348D01*
X113083448Y-147835111D01*
X113044041Y-147844136D01*
X113004635Y-147854815D01*
X112985448Y-147860645D01*
X112966882Y-147866734D01*
X112949142Y-147873029D01*
X112932436Y-147879479D01*
X112916969Y-147886032D01*
X112902950Y-147892638D01*
X112902950Y-148668656D01*
X112691312Y-148668656D01*
X112691312Y-147892638D01*
X112691312Y-147716270D01*
X112691416Y-147709758D01*
X112691726Y-147703454D01*
X112692242Y-147697356D01*
X112692966Y-147691465D01*
X112693896Y-147685781D01*
X112695032Y-147680303D01*
X112696376Y-147675033D01*
X112697926Y-147669969D01*
X112699683Y-147665112D01*
X112701646Y-147660461D01*
X112703816Y-147656018D01*
X112706193Y-147651781D01*
X112708776Y-147647751D01*
X112711567Y-147643927D01*
X112714563Y-147640310D01*
X112717767Y-147636900D01*
X112721177Y-147633697D01*
X112724794Y-147630701D01*
X112728618Y-147627911D01*
X112732648Y-147625327D01*
X112736885Y-147622951D01*
X112741328Y-147620781D01*
X112745978Y-147618818D01*
X112750835Y-147617061D01*
X112755899Y-147615512D01*
X112761169Y-147614168D01*
X112766646Y-147613032D01*
X112772330Y-147612102D01*
X112778220Y-147611379D01*
X112784317Y-147610862D01*
X112790621Y-147610552D01*
X112797131Y-147610449D01*
X112800437Y-147610550D01*
X112803736Y-147610845D01*
X112807023Y-147611321D01*
X112810290Y-147611965D01*
X112813531Y-147612763D01*
X112816740Y-147613704D01*
X112823035Y-147615961D01*
X112829123Y-147618630D01*
X112834953Y-147621610D01*
X112840473Y-147624796D01*
X112845631Y-147628086D01*
X112850376Y-147631376D01*
X112854656Y-147634562D01*
X112861615Y-147640211D01*
X112867677Y-147645723D01*
X112881705Y-147639117D01*
X112897232Y-147632564D01*
X112914102Y-147626114D01*
X112932161Y-147619819D01*
X112951253Y-147613730D01*
X112971223Y-147607900D01*
X112991917Y-147602380D01*
X113013178Y-147597221D01*
X113034854Y-147592476D01*
X113056787Y-147588196D01*
X113078824Y-147584433D01*
X113100810Y-147581238D01*
X113122588Y-147578663D01*
X113144005Y-147576760D01*
X113164906Y-147575580D01*
X113185134Y-147575176D01*
X113217888Y-147575997D01*
G37*
G36*
X112469536Y-38809229D02*
G01*
X112470895Y-38808777D01*
X112473717Y-38810061D01*
X112490383Y-38813377D01*
X112498222Y-38821216D01*
X112585612Y-38860996D01*
X112585620Y-38860996D01*
X112585627Y-38861003D01*
X112589654Y-38862836D01*
X112608919Y-38877788D01*
X112611420Y-38885293D01*
X112701135Y-38969782D01*
X112704895Y-38975410D01*
X112707158Y-38976768D01*
X112708094Y-38980198D01*
X112714683Y-38990059D01*
X112714683Y-39004324D01*
X112765194Y-39189293D01*
X112766379Y-39213651D01*
X112762822Y-39219579D01*
X112767060Y-39537785D01*
X112762302Y-39561703D01*
X112757842Y-39566162D01*
X112717575Y-39743419D01*
X112714684Y-39749538D01*
X112714684Y-39752178D01*
X112712181Y-39754834D01*
X112707158Y-39765469D01*
X112695683Y-39772353D01*
X112605897Y-39867694D01*
X112585620Y-39881242D01*
X112578190Y-39881242D01*
X112494416Y-39927021D01*
X112491396Y-39927847D01*
X112490383Y-39928861D01*
X112487458Y-39928925D01*
X112470895Y-39933461D01*
X112459172Y-39929553D01*
X112275989Y-39933619D01*
X112272917Y-39933008D01*
X112271559Y-39933461D01*
X112268736Y-39932176D01*
X112252071Y-39928861D01*
X112244231Y-39921021D01*
X112156844Y-39881243D01*
X112156834Y-39881243D01*
X112156824Y-39881233D01*
X112152800Y-39879402D01*
X112133535Y-39864450D01*
X112131033Y-39856944D01*
X112041319Y-39772455D01*
X112037558Y-39766826D01*
X112035296Y-39765469D01*
X112034359Y-39762038D01*
X112027771Y-39752178D01*
X112027771Y-39737912D01*
X111977260Y-39552943D01*
X111976075Y-39528586D01*
X111979631Y-39522657D01*
X111975661Y-39224492D01*
X112096221Y-39224492D01*
X112100394Y-39537785D01*
X112099499Y-39542281D01*
X112143204Y-39702325D01*
X112224849Y-39779215D01*
X112297674Y-39812364D01*
X112458355Y-39808798D01*
X112533752Y-39767598D01*
X112534197Y-39767476D01*
X112605504Y-39691757D01*
X112643926Y-39522627D01*
X112646232Y-39517744D01*
X112642060Y-39204452D01*
X112642954Y-39199955D01*
X112599250Y-39039911D01*
X112517606Y-38963023D01*
X112444779Y-38929873D01*
X112284098Y-38933439D01*
X112208702Y-38974640D01*
X112208256Y-38974762D01*
X112136949Y-39050479D01*
X112098528Y-39219610D01*
X112096221Y-39224492D01*
X111975661Y-39224492D01*
X111975394Y-39204452D01*
X111980152Y-39180534D01*
X111984611Y-39176074D01*
X112024879Y-38998818D01*
X112027771Y-38992696D01*
X112027771Y-38990059D01*
X112030271Y-38987404D01*
X112035296Y-38976768D01*
X112046772Y-38969881D01*
X112136557Y-38874544D01*
X112156834Y-38860996D01*
X112164264Y-38860996D01*
X112248038Y-38815217D01*
X112251057Y-38814390D01*
X112252071Y-38813377D01*
X112254995Y-38813312D01*
X112271559Y-38808777D01*
X112283281Y-38812684D01*
X112466465Y-38808619D01*
X112469536Y-38809229D01*
G37*
G36*
X114095636Y-38847201D02*
G01*
X114097239Y-39144052D01*
X114275989Y-39141952D01*
X114299907Y-39146710D01*
X114333731Y-39180534D01*
X114333731Y-39228370D01*
X114299907Y-39262194D01*
X114097889Y-39264568D01*
X114100351Y-39720403D01*
X114133442Y-39780958D01*
X114200802Y-39811621D01*
X114275989Y-39808619D01*
X114299907Y-39813377D01*
X114333731Y-39847201D01*
X114333731Y-39895037D01*
X114299907Y-39928861D01*
X114180751Y-39933619D01*
X114177679Y-39933008D01*
X114176321Y-39933461D01*
X114173498Y-39932176D01*
X114156833Y-39928861D01*
X114148993Y-39921021D01*
X114057562Y-39879402D01*
X114047731Y-39871771D01*
X114044563Y-39870716D01*
X114043231Y-39868280D01*
X114038297Y-39864450D01*
X114033852Y-39851115D01*
X113981992Y-39756212D01*
X113981165Y-39753192D01*
X113980152Y-39752179D01*
X113980137Y-39749437D01*
X113975552Y-39732691D01*
X113979975Y-39719421D01*
X113977526Y-39265982D01*
X113895037Y-39266952D01*
X113871119Y-39262194D01*
X113837295Y-39228370D01*
X113837295Y-39180534D01*
X113871119Y-39146710D01*
X113976875Y-39145467D01*
X113975394Y-38871119D01*
X113980152Y-38847201D01*
X114013976Y-38813377D01*
X114061812Y-38813377D01*
X114095636Y-38847201D01*
G37*
D13*
X110853633Y-34734438D02*
X111996490Y-34734438D01*
X111425061Y-36734438D02*
X111425061Y-34734438D01*
X112472681Y-34734438D02*
X113806014Y-36734438D01*
X113806014Y-34734438D02*
X112472681Y-36734438D01*
X114567919Y-35401104D02*
X114567919Y-36734438D01*
X114567919Y-35591580D02*
X114663157Y-35496342D01*
X114663157Y-35496342D02*
X114853633Y-35401104D01*
X114853633Y-35401104D02*
X115139348Y-35401104D01*
X115139348Y-35401104D02*
X115329824Y-35496342D01*
X115329824Y-35496342D02*
X115425062Y-35686819D01*
X115425062Y-35686819D02*
X115425062Y-36734438D01*
%LPC*%
%LPD*%
M02*
